<?xml version="1.0" encoding="UTF-8" standalone="no"?>
<!DOCTYPE svg PUBLIC "-//W3C//DTD SVG 1.1//EN"
 "http://www.w3.org/Graphics/SVG/1.1/DTD/svg11.dtd">
<!-- Generated by graphviz version 2.43.0 (0)
 -->
<!-- Title: classes Pages: 1 -->
<svg width="1253pt" height="481pt"
 viewBox="0.00 0.00 1253.00 481.00" xmlns="http://www.w3.org/2000/svg" xmlns:xlink="http://www.w3.org/1999/xlink">
<g id="graph0" class="graph" transform="scale(1 1) rotate(0) translate(4 477)">
<title>classes</title>
<polygon fill="white" stroke="transparent" points="-4,4 -4,-477 1249,-477 1249,4 -4,4"/>
<!-- clip_demo_app_pyqt.view.clip_view.AddSentenceDialog -->
<g id="node1" class="node">
<title>clip_demo_app_pyqt.view.clip_view.AddSentenceDialog</title>
<polygon fill="#f7df4f" stroke="#f7df4f" points="160.5,-362.5 160.5,-398.5 316.5,-398.5 316.5,-362.5 160.5,-362.5"/>
<text text-anchor="start" x="168.5" y="-376.8" font-family="Times,serif" font-size="14.00">AddSentenceDialog</text>
</g>
<!-- clip_demo_app_pyqt.common.base.Base -->
<g id="node2" class="node">
<title>clip_demo_app_pyqt.common.base.Base</title>
<polygon fill="#999999" stroke="#999999" points="632.5,-436.5 632.5,-472.5 686.5,-472.5 686.5,-436.5 632.5,-436.5"/>
<text text-anchor="start" x="642" y="-450.8" font-family="Times,serif" font-size="14.00">Base</text>
</g>
<!-- clip_demo_app_pyqt.model.clip_model.ClipModel -->
<g id="node3" class="node">
<title>clip_demo_app_pyqt.model.clip_model.ClipModel</title>
<polygon fill="#ffaabb" stroke="#ffaabb" points="1050,-84.5 1050,-120.5 1139,-120.5 1139,-84.5 1050,-84.5"/>
<text text-anchor="start" x="1058" y="-98.8" font-family="Times,serif" font-size="14.00">ClipModel</text>
</g>
<!-- clip_demo_app_pyqt.model.sentence_model.SentenceModel -->
<g id="node13" class="node">
<title>clip_demo_app_pyqt.model.sentence_model.SentenceModel</title>
<polygon fill="#ffaabb" stroke="#ffaabb" points="880,-168.5 880,-204.5 1007,-204.5 1007,-168.5 880,-168.5"/>
<text text-anchor="start" x="888" y="-182.8" font-family="Times,serif" font-size="14.00">SentenceModel</text>
</g>
<!-- clip_demo_app_pyqt.model.clip_model.ClipModel&#45;&gt;clip_demo_app_pyqt.model.sentence_model.SentenceModel -->
<g id="edge1" class="edge">
<title>clip_demo_app_pyqt.model.clip_model.ClipModel&#45;&gt;clip_demo_app_pyqt.model.sentence_model.SentenceModel</title>
<path fill="none" stroke="black" d="M1062.85,-120.69C1039.82,-133.2 1008.46,-150.23 983.66,-163.69"/>
<polygon fill="none" stroke="black" points="981.97,-160.63 974.85,-168.47 985.31,-166.78 981.97,-160.63"/>
</g>
<!-- clip_demo_app_pyqt.model.video_model.VideoModel -->
<g id="node21" class="node">
<title>clip_demo_app_pyqt.model.video_model.VideoModel</title>
<polygon fill="#ffaabb" stroke="#ffaabb" points="1064,-168.5 1064,-204.5 1165,-204.5 1165,-168.5 1064,-168.5"/>
<text text-anchor="start" x="1072" y="-182.8" font-family="Times,serif" font-size="14.00">VideoModel</text>
</g>
<!-- clip_demo_app_pyqt.model.clip_model.ClipModel&#45;&gt;clip_demo_app_pyqt.model.video_model.VideoModel -->
<g id="edge2" class="edge">
<title>clip_demo_app_pyqt.model.clip_model.ClipModel&#45;&gt;clip_demo_app_pyqt.model.video_model.VideoModel</title>
<path fill="none" stroke="black" d="M1098.74,-120.89C1101.41,-131.84 1104.91,-146.19 1107.93,-158.58"/>
<polygon fill="none" stroke="black" points="1104.56,-159.53 1110.33,-168.42 1111.36,-157.87 1104.56,-159.53"/>
</g>
<!-- clip_demo_app_pyqt.view.multithreading.clip_video_consumer.ClipVideoConsumer -->
<g id="node4" class="node">
<title>clip_demo_app_pyqt.view.multithreading.clip_video_consumer.ClipVideoConsumer</title>
<polygon fill="#77aadd" stroke="#77aadd" points="426.5,-168.5 426.5,-204.5 584.5,-204.5 584.5,-168.5 426.5,-168.5"/>
<text text-anchor="start" x="434.5" y="-182.8" font-family="Times,serif" font-size="14.00">ClipVideoConsumer</text>
</g>
<!-- clip_demo_app_pyqt.view.multithreading.video_consumer.VideoConsumer -->
<g id="node20" class="node">
<title>clip_demo_app_pyqt.view.multithreading.video_consumer.VideoConsumer</title>
<polygon fill="#77aadd" stroke="#77aadd" points="465,-278.5 465,-314.5 594,-314.5 594,-278.5 465,-278.5"/>
<text text-anchor="start" x="473" y="-292.8" font-family="Times,serif" font-size="14.00">VideoConsumer</text>
</g>
<!-- clip_demo_app_pyqt.view.multithreading.clip_video_consumer.ClipVideoConsumer&#45;&gt;clip_demo_app_pyqt.view.multithreading.video_consumer.VideoConsumer -->
<g id="edge7" class="edge">
<title>clip_demo_app_pyqt.view.multithreading.clip_video_consumer.ClipVideoConsumer&#45;&gt;clip_demo_app_pyqt.view.multithreading.video_consumer.VideoConsumer</title>
<path fill="none" stroke="black" d="M509.36,-204.85C513.15,-221.94 519.01,-248.28 523.43,-268.18"/>
<polygon fill="none" stroke="black" points="520.07,-269.19 525.65,-278.19 526.9,-267.67 520.07,-269.19"/>
</g>
<!-- clip_demo_app_pyqt.view.clip_view.ClipView -->
<g id="node5" class="node">
<title>clip_demo_app_pyqt.view.clip_view.ClipView</title>
<polygon fill="#f7df4f" stroke="#f7df4f" points="94.5,-278.5 94.5,-314.5 174.5,-314.5 174.5,-278.5 94.5,-278.5"/>
<text text-anchor="start" x="102.5" y="-292.8" font-family="Times,serif" font-size="14.00">ClipView</text>
</g>
<!-- clip_demo_app_pyqt.view.clip_view.ClipView&#45;&gt;clip_demo_app_pyqt.view.clip_view.AddSentenceDialog -->
<g id="edge32" class="edge">
<title>clip_demo_app_pyqt.view.clip_view.ClipView&#45;&gt;clip_demo_app_pyqt.view.clip_view.AddSentenceDialog</title>
<path fill="none" stroke="#999999" d="M156.3,-314.69C171.56,-326.72 192.11,-342.93 208.86,-356.13"/>
<polygon fill="#999999" stroke="#999999" points="216.73,-362.33 206.09,-359.67 212.8,-359.24 208.87,-356.14 208.87,-356.14 208.87,-356.14 212.8,-359.24 211.66,-352.61 216.73,-362.33 216.73,-362.33"/>
</g>
<!-- clip_demo_app_pyqt.view.clip_view.ClipView&#45;&gt;clip_demo_app_pyqt.common.base.Base -->
<g id="edge6" class="edge">
<title>clip_demo_app_pyqt.view.clip_view.ClipView&#45;&gt;clip_demo_app_pyqt.common.base.Base</title>
<path fill="none" stroke="black" d="M131.74,-314.72C129.16,-337.54 128.62,-377.43 151.5,-399 185.66,-431.2 510.63,-447.41 622.15,-452.06"/>
<polygon fill="none" stroke="black" points="622.13,-455.56 632.26,-452.47 622.41,-448.57 622.13,-455.56"/>
</g>
<!-- clip_demo_app_pyqt.data.input_data.InputData -->
<g id="node9" class="node">
<title>clip_demo_app_pyqt.data.input_data.InputData</title>
<polygon fill="#aaaa00" stroke="#aaaa00" points="14,-362.5 14,-398.5 103,-398.5 103,-362.5 14,-362.5"/>
<text text-anchor="start" x="22" y="-376.8" font-family="Times,serif" font-size="14.00">InputData</text>
</g>
<!-- clip_demo_app_pyqt.view.clip_view.ClipView&#45;&gt;clip_demo_app_pyqt.data.input_data.InputData -->
<g id="edge33" class="edge">
<title>clip_demo_app_pyqt.view.clip_view.ClipView&#45;&gt;clip_demo_app_pyqt.data.input_data.InputData</title>
<path fill="none" stroke="#999999" d="M118.38,-314.89C107.63,-326.49 93.33,-341.92 81.4,-354.79"/>
<polygon fill="#999999" stroke="#999999" points="74.33,-362.42 77.83,-352.02 77.73,-358.75 81.13,-355.08 81.13,-355.08 81.13,-355.08 77.73,-358.75 84.43,-358.14 74.33,-362.42 74.33,-362.42"/>
</g>
<!-- clip_demo_app_pyqt.view.multithreading.video_worker.VideoWorker -->
<g id="node24" class="node">
<title>clip_demo_app_pyqt.view.multithreading.video_worker.VideoWorker</title>
<polygon fill="#77aadd" stroke="#77aadd" points="335.5,-362.5 335.5,-398.5 443.5,-398.5 443.5,-362.5 335.5,-362.5"/>
<text text-anchor="start" x="343.5" y="-376.8" font-family="Times,serif" font-size="14.00">VideoWorker</text>
</g>
<!-- clip_demo_app_pyqt.view.clip_view.ClipView&#45;&gt;clip_demo_app_pyqt.view.multithreading.video_worker.VideoWorker -->
<g id="edge30" class="edge">
<title>clip_demo_app_pyqt.view.clip_view.ClipView&#45;&gt;clip_demo_app_pyqt.view.multithreading.video_worker.VideoWorker</title>
<path fill="none" stroke="#999999" d="M174.57,-311.96C177.58,-313 180.59,-314.02 183.5,-315 230.77,-330.84 284.54,-347.63 325.29,-360.11"/>
<polygon fill="#999999" stroke="#999999" points="335.1,-363.11 324.22,-364.49 330.31,-361.65 325.53,-360.18 325.53,-360.18 325.53,-360.18 330.31,-361.65 326.85,-355.88 335.1,-363.11 335.1,-363.11"/>
</g>
<!-- clip_demo_app_pyqt.viewmodel.clip_view_model.ClipViewModel -->
<g id="node6" class="node">
<title>clip_demo_app_pyqt.viewmodel.clip_view_model.ClipViewModel</title>
<polygon fill="#99ddff" stroke="#99ddff" points="679.5,-84.5 679.5,-120.5 803.5,-120.5 803.5,-84.5 679.5,-84.5"/>
<text text-anchor="start" x="687.5" y="-98.8" font-family="Times,serif" font-size="14.00">ClipViewModel</text>
</g>
<!-- clip_demo_app_pyqt.viewmodel.clip_view_model.ClipViewModel&#45;&gt;clip_demo_app_pyqt.view.multithreading.clip_video_consumer.ClipVideoConsumer -->
<g id="edge29" class="edge">
<title>clip_demo_app_pyqt.viewmodel.clip_view_model.ClipViewModel&#45;&gt;clip_demo_app_pyqt.view.multithreading.clip_video_consumer.ClipVideoConsumer</title>
<path fill="none" stroke="black" d="M705.87,-120.61C678.36,-133.81 644.91,-149.85 644.5,-150 628.87,-155.68 611.93,-160.81 595.43,-165.3"/>
<polygon fill="none" stroke="black" points="595.12,-165.38 590.34,-170.78 583.52,-168.45 588.3,-163.05 595.12,-165.38"/>
<text text-anchor="middle" x="673.5" y="-142" font-family="Times,serif" font-size="10.00" fill="green">ctx</text>
</g>
<!-- clip_demo_app_pyqt.viewmodel.clip_view_model.ClipViewModel&#45;&gt;clip_demo_app_pyqt.view.clip_view.ClipView -->
<g id="edge28" class="edge">
<title>clip_demo_app_pyqt.viewmodel.clip_view_model.ClipViewModel&#45;&gt;clip_demo_app_pyqt.view.clip_view.ClipView</title>
<path fill="none" stroke="black" d="M723.1,-120.55C696.65,-143.95 645.36,-185.34 593.5,-205 424.07,-269.24 364.87,-232.13 186.36,-277.5"/>
<polygon fill="none" stroke="black" points="186.32,-277.51 181.52,-282.9 174.71,-280.54 179.51,-275.16 186.32,-277.51"/>
<text text-anchor="middle" x="696" y="-184" font-family="Times,serif" font-size="10.00" fill="green">__view_model</text>
</g>
<!-- clip_demo_app_pyqt.viewmodel.sentence_view_model.SentenceViewModel -->
<g id="node15" class="node">
<title>clip_demo_app_pyqt.viewmodel.sentence_view_model.SentenceViewModel</title>
<polygon fill="#99ddff" stroke="#99ddff" points="713,-278.5 713,-314.5 874,-314.5 874,-278.5 713,-278.5"/>
<text text-anchor="start" x="721" y="-292.8" font-family="Times,serif" font-size="14.00">SentenceViewModel</text>
</g>
<!-- clip_demo_app_pyqt.viewmodel.clip_view_model.ClipViewModel&#45;&gt;clip_demo_app_pyqt.viewmodel.sentence_view_model.SentenceViewModel -->
<g id="edge9" class="edge">
<title>clip_demo_app_pyqt.viewmodel.clip_view_model.ClipViewModel&#45;&gt;clip_demo_app_pyqt.viewmodel.sentence_view_model.SentenceViewModel</title>
<path fill="none" stroke="black" d="M748.58,-120.53C753.75,-133.4 760.68,-151.61 765.5,-168 775.57,-202.2 783.83,-242.52 788.71,-268.52"/>
<polygon fill="none" stroke="black" points="785.28,-269.2 790.53,-278.4 792.16,-267.93 785.28,-269.2"/>
</g>
<!-- clip_demo_app_pyqt.viewmodel.video_view_model.VideoViewModel -->
<g id="node23" class="node">
<title>clip_demo_app_pyqt.viewmodel.video_view_model.VideoViewModel</title>
<polygon fill="#99ddff" stroke="#99ddff" points="1031,-278.5 1031,-314.5 1166,-314.5 1166,-278.5 1031,-278.5"/>
<text text-anchor="start" x="1039" y="-292.8" font-family="Times,serif" font-size="14.00">VideoViewModel</text>
</g>
<!-- clip_demo_app_pyqt.viewmodel.clip_view_model.ClipViewModel&#45;&gt;clip_demo_app_pyqt.viewmodel.video_view_model.VideoViewModel -->
<g id="edge10" class="edge">
<title>clip_demo_app_pyqt.viewmodel.clip_view_model.ClipViewModel&#45;&gt;clip_demo_app_pyqt.viewmodel.video_view_model.VideoViewModel</title>
<path fill="none" stroke="black" d="M803.72,-104.97C863.29,-109.21 953.21,-123.31 1016.5,-168 1052.27,-193.26 1076.18,-239.54 1088.54,-268.85"/>
<polygon fill="none" stroke="black" points="1085.43,-270.5 1092.43,-278.45 1091.92,-267.87 1085.43,-270.5"/>
</g>
<!-- clip_demo_app_pyqt.lib.clip.dx_video_encoder.DXVideoEncoder -->
<g id="node7" class="node">
<title>clip_demo_app_pyqt.lib.clip.dx_video_encoder.DXVideoEncoder</title>
<polygon fill="#ee8866" stroke="#ee8866" points="117,-84.5 117,-120.5 254,-120.5 254,-84.5 117,-84.5"/>
<text text-anchor="start" x="125" y="-98.8" font-family="Times,serif" font-size="14.00">DXVideoEncoder</text>
</g>
<!-- clip_demo_app_pyqt.lib.clip.dx_video_encoder.DXVideoEncoder&#45;&gt;clip_demo_app_pyqt.view.multithreading.clip_video_consumer.ClipVideoConsumer -->
<g id="edge18" class="edge">
<title>clip_demo_app_pyqt.lib.clip.dx_video_encoder.DXVideoEncoder&#45;&gt;clip_demo_app_pyqt.view.multithreading.clip_video_consumer.ClipVideoConsumer</title>
<path fill="none" stroke="black" d="M195.18,-120.51C202,-130.82 212.1,-143.24 224.5,-150 256.37,-167.38 344.94,-176.52 414.21,-181.14"/>
<polygon fill="black" stroke="black" points="414.48,-181.16 420.73,-177.55 426.46,-181.93 420.22,-185.54 414.48,-181.16"/>
<text text-anchor="middle" x="283" y="-142" font-family="Times,serif" font-size="10.00" fill="green">__dxnn_video_encoder</text>
</g>
<!-- dx_engine.inference_engine.InferenceEngine -->
<g id="node8" class="node">
<title>dx_engine.inference_engine.InferenceEngine</title>
<polygon fill="#44bb99" stroke="#44bb99" points="118.5,-0.5 118.5,-36.5 252.5,-36.5 252.5,-0.5 118.5,-0.5"/>
<text text-anchor="start" x="126.5" y="-14.8" font-family="Times,serif" font-size="14.00">InferenceEngine</text>
</g>
<!-- dx_engine.inference_engine.InferenceEngine&#45;&gt;clip_demo_app_pyqt.lib.clip.dx_video_encoder.DXVideoEncoder -->
<g id="edge20" class="edge">
<title>dx_engine.inference_engine.InferenceEngine&#45;&gt;clip_demo_app_pyqt.lib.clip.dx_video_encoder.DXVideoEncoder</title>
<path fill="none" stroke="black" d="M185.5,-36.89C185.5,-47.18 185.5,-60.48 185.5,-72.33"/>
<polygon fill="black" stroke="black" points="185.5,-72.42 189.5,-78.42 185.5,-84.42 181.5,-78.42 185.5,-72.42"/>
<text text-anchor="middle" x="190.5" y="-58" font-family="Times,serif" font-size="10.00" fill="green">ie</text>
</g>
<!-- clip_demo_app_pyqt.model.model.Model -->
<g id="node10" class="node">
<title>clip_demo_app_pyqt.model.model.Model</title>
<polygon fill="#ffaabb" stroke="#ffaabb" points="1184,-278.5 1184,-314.5 1245,-314.5 1245,-278.5 1184,-278.5"/>
<text text-anchor="start" x="1192" y="-292.8" font-family="Times,serif" font-size="14.00">Model</text>
</g>
<!-- clip_demo_app_pyqt.model.model.Model&#45;&gt;clip_demo_app_pyqt.common.base.Base -->
<g id="edge3" class="edge">
<title>clip_demo_app_pyqt.model.model.Model&#45;&gt;clip_demo_app_pyqt.common.base.Base</title>
<path fill="none" stroke="black" d="M1195.35,-314.64C1183.27,-324.6 1166.9,-336.6 1150.5,-344 991.13,-415.91 780.77,-442.31 696.61,-450.41"/>
<polygon fill="none" stroke="black" points="696.15,-446.94 686.52,-451.35 696.8,-453.91 696.15,-446.94"/>
</g>
<!-- clip_demo_app_pyqt.viewmodel.view_model.ViewModel -->
<g id="node25" class="node">
<title>clip_demo_app_pyqt.viewmodel.view_model.ViewModel</title>
<polygon fill="#99ddff" stroke="#99ddff" points="779,-362.5 779,-398.5 874,-398.5 874,-362.5 779,-362.5"/>
<text text-anchor="start" x="787" y="-376.8" font-family="Times,serif" font-size="14.00">ViewModel</text>
</g>
<!-- clip_demo_app_pyqt.model.model.Model&#45;&gt;clip_demo_app_pyqt.viewmodel.view_model.ViewModel -->
<g id="edge22" class="edge">
<title>clip_demo_app_pyqt.model.model.Model&#45;&gt;clip_demo_app_pyqt.viewmodel.view_model.ViewModel</title>
<path fill="none" stroke="black" d="M1183.68,-312.13C1180.94,-313.18 1178.19,-314.16 1175.5,-315 1076.45,-345.89 956.7,-364.05 886.34,-372.86"/>
<polygon fill="none" stroke="black" points="886.13,-372.89 880.66,-377.59 874.22,-374.35 879.69,-369.65 886.13,-372.89"/>
<text text-anchor="middle" x="1128" y="-336" font-family="Times,serif" font-size="10.00" fill="green">_model</text>
</g>
<!-- clip_demo_app_pyqt.common.util.peekable_queue.PeekableQueue -->
<g id="node11" class="node">
<title>clip_demo_app_pyqt.common.util.peekable_queue.PeekableQueue</title>
<polygon fill="#bbcc33" stroke="#bbcc33" points="272.5,-84.5 272.5,-120.5 398.5,-120.5 398.5,-84.5 272.5,-84.5"/>
<text text-anchor="start" x="280.5" y="-98.8" font-family="Times,serif" font-size="14.00">PeekableQueue</text>
</g>
<!-- clip_demo_app_pyqt.common.util.peekable_queue.PeekableQueue&#45;&gt;clip_demo_app_pyqt.view.multithreading.clip_video_consumer.ClipVideoConsumer -->
<g id="edge17" class="edge">
<title>clip_demo_app_pyqt.common.util.peekable_queue.PeekableQueue&#45;&gt;clip_demo_app_pyqt.view.multithreading.clip_video_consumer.ClipVideoConsumer</title>
<path fill="none" stroke="black" d="M338.51,-120.85C341.11,-130.76 345.88,-142.64 354.5,-150 371.35,-164.39 392.96,-173.2 414.53,-178.52"/>
<polygon fill="black" stroke="black" points="414.76,-178.57 421.48,-175.95 426.49,-181.14 419.77,-183.76 414.76,-178.57"/>
<text text-anchor="middle" x="428" y="-142" font-family="Times,serif" font-size="10.00" fill="green">__np_array_similarity_queue</text>
</g>
<!-- clip_demo_app_pyqt.model.sentence_model.Sentence -->
<g id="node12" class="node">
<title>clip_demo_app_pyqt.model.sentence_model.Sentence</title>
<polygon fill="#ffaabb" stroke="#ffaabb" points="612,-278.5 612,-314.5 695,-314.5 695,-278.5 612,-278.5"/>
<text text-anchor="start" x="620" y="-292.8" font-family="Times,serif" font-size="14.00">Sentence</text>
</g>
<!-- clip_demo_app_pyqt.model.sentence_model.SentenceOutput -->
<g id="node14" class="node">
<title>clip_demo_app_pyqt.model.sentence_model.SentenceOutput</title>
<polygon fill="#ffaabb" stroke="#ffaabb" points="574,-362.5 574,-398.5 707,-398.5 707,-362.5 574,-362.5"/>
<text text-anchor="start" x="582" y="-376.8" font-family="Times,serif" font-size="14.00">SentenceOutput</text>
</g>
<!-- clip_demo_app_pyqt.model.sentence_model.Sentence&#45;&gt;clip_demo_app_pyqt.model.sentence_model.SentenceOutput -->
<g id="edge23" class="edge">
<title>clip_demo_app_pyqt.model.sentence_model.Sentence&#45;&gt;clip_demo_app_pyqt.model.sentence_model.SentenceOutput</title>
<path fill="none" stroke="black" d="M650.74,-314.89C649.11,-325.18 647,-338.48 645.12,-350.33"/>
<polygon fill="none" stroke="black" points="645.09,-350.56 648.1,-357.12 643.21,-362.42 640.2,-355.86 645.09,-350.56"/>
<text text-anchor="middle" x="676" y="-336" font-family="Times,serif" font-size="10.00" fill="green">__sentence</text>
</g>
<!-- clip_demo_app_pyqt.model.sentence_model.SentenceModel&#45;&gt;clip_demo_app_pyqt.model.model.Model -->
<g id="edge4" class="edge">
<title>clip_demo_app_pyqt.model.sentence_model.SentenceModel&#45;&gt;clip_demo_app_pyqt.model.model.Model</title>
<path fill="none" stroke="black" d="M1007.16,-197.52C1022.95,-199.98 1039.84,-202.6 1055.5,-205 1108.81,-213.16 1131.39,-191.97 1175.5,-223 1190.94,-233.86 1200.83,-252.81 1206.78,-268.61"/>
<polygon fill="none" stroke="black" points="1203.59,-270.1 1210.15,-278.43 1210.22,-267.83 1203.59,-270.1"/>
</g>
<!-- clip_demo_app_pyqt.model.sentence_model.SentenceModel&#45;&gt;clip_demo_app_pyqt.model.sentence_model.Sentence -->
<g id="edge36" class="edge">
<title>clip_demo_app_pyqt.model.sentence_model.SentenceModel&#45;&gt;clip_demo_app_pyqt.model.sentence_model.Sentence</title>
<path fill="none" stroke="#999999" d="M884.65,-204.51C866.52,-210.06 846.58,-216.48 828.5,-223 784.81,-238.75 736.07,-259.19 701.14,-274.35"/>
<polygon fill="#999999" stroke="#999999" points="691.67,-278.47 699.04,-270.35 696.26,-276.48 700.84,-274.48 700.84,-274.48 700.84,-274.48 696.26,-276.48 702.64,-278.6 691.67,-278.47 691.67,-278.47"/>
</g>
<!-- clip_demo_app_pyqt.model.sentence_model.SentenceModel&#45;&gt;clip_demo_app_pyqt.viewmodel.sentence_view_model.SentenceViewModel -->
<g id="edge24" class="edge">
<title>clip_demo_app_pyqt.model.sentence_model.SentenceModel&#45;&gt;clip_demo_app_pyqt.viewmodel.sentence_view_model.SentenceViewModel</title>
<path fill="none" stroke="black" d="M880.04,-204.54C868.81,-209.35 857.76,-215.41 848.5,-223 833.52,-235.27 837.14,-244.53 825.5,-260 823.23,-263.02 820.75,-266.09 818.22,-269.09"/>
<polygon fill="none" stroke="black" points="818.02,-269.32 817.06,-276.47 810.09,-278.33 811.05,-271.19 818.02,-269.32"/>
<text text-anchor="middle" x="895.5" y="-239" font-family="Times,serif" font-size="10.00" fill="green">__sentence_model</text>
</g>
<!-- clip_demo_app_pyqt.lib.clip.dx_text_encoder.TextVectorUtil -->
<g id="node17" class="node">
<title>clip_demo_app_pyqt.lib.clip.dx_text_encoder.TextVectorUtil</title>
<polygon fill="#ee8866" stroke="#ee8866" points="892.5,-278.5 892.5,-314.5 1012.5,-314.5 1012.5,-278.5 892.5,-278.5"/>
<text text-anchor="start" x="900.5" y="-292.8" font-family="Times,serif" font-size="14.00">TextVectorUtil</text>
</g>
<!-- clip_demo_app_pyqt.model.sentence_model.SentenceModel&#45;&gt;clip_demo_app_pyqt.lib.clip.dx_text_encoder.TextVectorUtil -->
<g id="edge31" class="edge">
<title>clip_demo_app_pyqt.model.sentence_model.SentenceModel&#45;&gt;clip_demo_app_pyqt.lib.clip.dx_text_encoder.TextVectorUtil</title>
<path fill="none" stroke="#999999" d="M944.95,-204.85C946.37,-221.94 948.57,-248.28 950.22,-268.18"/>
<polygon fill="#999999" stroke="#999999" points="951.06,-278.19 945.74,-268.6 950.64,-273.21 950.23,-268.23 950.23,-268.23 950.23,-268.23 950.64,-273.21 954.71,-267.85 951.06,-278.19 951.06,-278.19"/>
</g>
<!-- clip_demo_app_pyqt.viewmodel.sentence_view_model.SentenceViewModel&#45;&gt;clip_demo_app_pyqt.viewmodel.view_model.ViewModel -->
<g id="edge11" class="edge">
<title>clip_demo_app_pyqt.viewmodel.sentence_view_model.SentenceViewModel&#45;&gt;clip_demo_app_pyqt.viewmodel.view_model.ViewModel</title>
<path fill="none" stroke="black" d="M800.5,-314.89C804.95,-325.94 810.79,-340.47 815.82,-352.95"/>
<polygon fill="none" stroke="black" points="812.64,-354.45 819.62,-362.42 819.14,-351.83 812.64,-354.45"/>
</g>
<!-- clip_demo_app_pyqt.view.settings_view.SettingsView -->
<g id="node16" class="node">
<title>clip_demo_app_pyqt.view.settings_view.SettingsView</title>
<polygon fill="#f7df4f" stroke="#f7df4f" points="0,-223.5 0,-259.5 111,-259.5 111,-223.5 0,-223.5"/>
<text text-anchor="start" x="8" y="-237.8" font-family="Times,serif" font-size="14.00">SettingsView</text>
</g>
<!-- clip_demo_app_pyqt.view.settings_view.SettingsView&#45;&gt;clip_demo_app_pyqt.data.input_data.InputData -->
<g id="edge34" class="edge">
<title>clip_demo_app_pyqt.view.settings_view.SettingsView&#45;&gt;clip_demo_app_pyqt.data.input_data.InputData</title>
<path fill="none" stroke="#999999" d="M55.87,-259.57C56.38,-282.75 57.29,-324.44 57.9,-352.04"/>
<polygon fill="#999999" stroke="#999999" points="58.12,-362.21 53.4,-352.31 58.01,-357.21 57.9,-352.21 57.9,-352.21 57.9,-352.21 58.01,-357.21 62.4,-352.11 58.12,-362.21 58.12,-362.21"/>
</g>
<!-- clip_demo_app_pyqt.common.config.ui_config.UIConfig -->
<g id="node18" class="node">
<title>clip_demo_app_pyqt.common.config.ui_config.UIConfig</title>
<polygon fill="#44bb99" stroke="#44bb99" points="16.5,-84.5 16.5,-120.5 96.5,-120.5 96.5,-84.5 16.5,-84.5"/>
<text text-anchor="start" x="24.5" y="-98.8" font-family="Times,serif" font-size="14.00">UIConfig</text>
</g>
<!-- clip_demo_app_pyqt.common.config.ui_config.UIConfig&#45;&gt;clip_demo_app_pyqt.view.settings_view.SettingsView -->
<g id="edge15" class="edge">
<title>clip_demo_app_pyqt.common.config.ui_config.UIConfig&#45;&gt;clip_demo_app_pyqt.view.settings_view.SettingsView</title>
<path fill="none" stroke="black" d="M54.16,-120.8C53.48,-126.58 52.83,-133.06 52.5,-139 51.14,-163.26 52.11,-190.81 53.3,-211.08"/>
<polygon fill="black" stroke="black" points="53.31,-211.27 57.69,-217 54.09,-223.25 49.71,-217.52 53.31,-211.27"/>
<text text-anchor="middle" x="76" y="-142" font-family="Times,serif" font-size="10.00" fill="green">ui_config</text>
</g>
<!-- clip_demo_app_pyqt.common.config.ui_config.UIHelper -->
<g id="node19" class="node">
<title>clip_demo_app_pyqt.common.config.ui_config.UIHelper</title>
<polygon fill="#44bb99" stroke="#44bb99" points="88,-168.5 88,-204.5 171,-204.5 171,-168.5 88,-168.5"/>
<text text-anchor="start" x="96" y="-182.8" font-family="Times,serif" font-size="14.00">UIHelper</text>
</g>
<!-- clip_demo_app_pyqt.common.config.ui_config.UIConfig&#45;&gt;clip_demo_app_pyqt.common.config.ui_config.UIHelper -->
<g id="edge21" class="edge">
<title>clip_demo_app_pyqt.common.config.ui_config.UIConfig&#45;&gt;clip_demo_app_pyqt.common.config.ui_config.UIHelper</title>
<path fill="none" stroke="black" d="M83.02,-120.53C90.19,-125.9 97.59,-132.22 103.5,-139 108.21,-144.4 112.45,-150.8 116.07,-157.09"/>
<polygon fill="none" stroke="black" points="116.27,-157.46 122.62,-160.88 121.9,-168.06 115.55,-164.63 116.27,-157.46"/>
<text text-anchor="middle" x="135" y="-142" font-family="Times,serif" font-size="10.00" fill="green">ui_config</text>
</g>
<!-- clip_demo_app_pyqt.common.config.ui_config.UIHelper&#45;&gt;clip_demo_app_pyqt.view.clip_view.ClipView -->
<g id="edge16" class="edge">
<title>clip_demo_app_pyqt.common.config.ui_config.UIHelper&#45;&gt;clip_demo_app_pyqt.view.clip_view.ClipView</title>
<path fill="none" stroke="black" d="M130.3,-204.85C131.07,-221.31 132.22,-246.35 133.13,-265.95"/>
<polygon fill="black" stroke="black" points="133.14,-266.2 137.42,-272.01 133.7,-278.19 129.43,-272.38 133.14,-266.2"/>
<text text-anchor="middle" x="158" y="-239" font-family="Times,serif" font-size="10.00" fill="green">ui_helper</text>
</g>
<!-- clip_demo_app_pyqt.view.multithreading.video_consumer.VideoConsumer&#45;&gt;clip_demo_app_pyqt.model.sentence_model.SentenceOutput -->
<g id="edge35" class="edge">
<title>clip_demo_app_pyqt.view.multithreading.video_consumer.VideoConsumer&#45;&gt;clip_demo_app_pyqt.model.sentence_model.SentenceOutput</title>
<path fill="none" stroke="#999999" d="M571.61,-314.63C581.89,-319.77 592.51,-325.94 601.5,-333 609.29,-339.12 616.62,-347.01 622.77,-354.55"/>
<polygon fill="#999999" stroke="#999999" points="628.96,-362.5 619.26,-357.37 625.89,-358.55 622.81,-354.6 622.81,-354.6 622.81,-354.6 625.89,-358.55 626.37,-351.84 628.96,-362.5 628.96,-362.5"/>
</g>
<!-- clip_demo_app_pyqt.view.multithreading.video_consumer.VideoConsumer&#45;&gt;clip_demo_app_pyqt.view.multithreading.video_worker.VideoWorker -->
<g id="edge26" class="edge">
<title>clip_demo_app_pyqt.view.multithreading.video_consumer.VideoConsumer&#45;&gt;clip_demo_app_pyqt.view.multithreading.video_worker.VideoWorker</title>
<path fill="none" stroke="black" d="M513.37,-314.61C503.66,-324.19 490.66,-335.81 477.5,-344 469.44,-349.02 460.54,-353.58 451.6,-357.63"/>
<polygon fill="none" stroke="black" points="451.32,-357.74 447.39,-363.79 440.3,-362.48 444.23,-356.44 451.32,-357.74"/>
<text text-anchor="middle" x="538.5" y="-336" font-family="Times,serif" font-size="10.00" fill="green">__video_consumer</text>
</g>
<!-- clip_demo_app_pyqt.model.video_model.VideoModel&#45;&gt;clip_demo_app_pyqt.model.model.Model -->
<g id="edge5" class="edge">
<title>clip_demo_app_pyqt.model.video_model.VideoModel&#45;&gt;clip_demo_app_pyqt.model.model.Model</title>
<path fill="none" stroke="black" d="M1165.38,-199.08C1178.53,-204.36 1191.51,-211.99 1200.5,-223 1210.75,-235.54 1214.29,-253.36 1215.25,-268.2"/>
<polygon fill="none" stroke="black" points="1211.76,-268.46 1215.55,-278.35 1218.75,-268.25 1211.76,-268.46"/>
</g>
<!-- clip_demo_app_pyqt.model.video_model.VideoModel&#45;&gt;clip_demo_app_pyqt.viewmodel.video_view_model.VideoViewModel -->
<g id="edge25" class="edge">
<title>clip_demo_app_pyqt.model.video_model.VideoModel&#45;&gt;clip_demo_app_pyqt.viewmodel.video_view_model.VideoViewModel</title>
<path fill="none" stroke="black" d="M1111.93,-204.85C1109.48,-221.38 1105.75,-246.59 1102.84,-266.24"/>
<polygon fill="none" stroke="black" points="1102.82,-266.32 1105.9,-272.84 1101.06,-278.19 1097.99,-271.67 1102.82,-266.32"/>
<text text-anchor="middle" x="1146.5" y="-239" font-family="Times,serif" font-size="10.00" fill="green">__video_model</text>
</g>
<!-- clip_demo_app_pyqt.view.multithreading.video_producer.VideoProducer -->
<g id="node22" class="node">
<title>clip_demo_app_pyqt.view.multithreading.video_producer.VideoProducer</title>
<polygon fill="#77aadd" stroke="#77aadd" points="192.5,-278.5 192.5,-314.5 314.5,-314.5 314.5,-278.5 192.5,-278.5"/>
<text text-anchor="start" x="200.5" y="-292.8" font-family="Times,serif" font-size="14.00">VideoProducer</text>
</g>
<!-- clip_demo_app_pyqt.view.multithreading.video_producer.VideoProducer&#45;&gt;clip_demo_app_pyqt.view.multithreading.video_worker.VideoWorker -->
<g id="edge27" class="edge">
<title>clip_demo_app_pyqt.view.multithreading.video_producer.VideoProducer&#45;&gt;clip_demo_app_pyqt.view.multithreading.video_worker.VideoWorker</title>
<path fill="none" stroke="black" d="M265.49,-314.89C272.9,-324.56 283.15,-336.19 294.5,-344 303.55,-350.23 313.84,-355.54 324.22,-359.99"/>
<polygon fill="none" stroke="black" points="324.33,-360.04 331.38,-358.56 335.47,-364.5 328.41,-365.98 324.33,-360.04"/>
<text text-anchor="middle" x="340" y="-336" font-family="Times,serif" font-size="10.00" fill="green">__video_producer</text>
</g>
<!-- clip_demo_app_pyqt.viewmodel.video_view_model.VideoViewModel&#45;&gt;clip_demo_app_pyqt.viewmodel.view_model.ViewModel -->
<g id="edge12" class="edge">
<title>clip_demo_app_pyqt.viewmodel.video_view_model.VideoViewModel&#45;&gt;clip_demo_app_pyqt.viewmodel.view_model.ViewModel</title>
<path fill="none" stroke="black" d="M1041.81,-314.59C995.44,-328.57 930.17,-348.25 883.67,-362.27"/>
<polygon fill="none" stroke="black" points="882.61,-358.93 874.05,-365.17 884.63,-365.63 882.61,-358.93"/>
</g>
<!-- clip_demo_app_pyqt.view.multithreading.video_worker.VideoWorker&#45;&gt;clip_demo_app_pyqt.common.base.Base -->
<g id="edge8" class="edge">
<title>clip_demo_app_pyqt.view.multithreading.video_worker.VideoWorker&#45;&gt;clip_demo_app_pyqt.common.base.Base</title>
<path fill="none" stroke="black" d="M443.81,-395.98C496.93,-410.15 576.36,-431.33 622.55,-443.65"/>
<polygon fill="none" stroke="black" points="621.87,-447.09 632.44,-446.28 623.67,-440.32 621.87,-447.09"/>
</g>
<!-- clip_demo_app_pyqt.viewmodel.view_model.ViewModel&#45;&gt;clip_demo_app_pyqt.common.base.Base -->
<g id="edge13" class="edge">
<title>clip_demo_app_pyqt.viewmodel.view_model.ViewModel&#45;&gt;clip_demo_app_pyqt.common.base.Base</title>
<path fill="none" stroke="black" d="M786.92,-398.56C759.35,-410.45 722.84,-426.19 695.97,-437.78"/>
<polygon fill="none" stroke="black" points="694.34,-434.67 686.54,-441.84 697.11,-441.1 694.34,-434.67"/>
</g>
<!-- clip_demo_app_pyqt.view.multithreading.video_worker.WorkerQueue -->
<g id="node26" class="node">
<title>clip_demo_app_pyqt.view.multithreading.video_worker.WorkerQueue</title>
<polygon fill="#77aadd" stroke="#77aadd" points="332.5,-278.5 332.5,-314.5 446.5,-314.5 446.5,-278.5 332.5,-278.5"/>
<text text-anchor="start" x="340.5" y="-292.8" font-family="Times,serif" font-size="14.00">WorkerQueue</text>
</g>
<!-- clip_demo_app_pyqt.view.multithreading.video_worker.WorkerQueue&#45;&gt;clip_demo_app_pyqt.view.multithreading.video_worker.VideoWorker -->
<g id="edge19" class="edge">
<title>clip_demo_app_pyqt.view.multithreading.video_worker.WorkerQueue&#45;&gt;clip_demo_app_pyqt.view.multithreading.video_worker.VideoWorker</title>
<path fill="none" stroke="black" d="M389.5,-314.89C389.5,-325.18 389.5,-338.48 389.5,-350.33"/>
<polygon fill="black" stroke="black" points="389.5,-350.42 393.5,-356.42 389.5,-362.42 385.5,-356.42 389.5,-350.42"/>
<text text-anchor="middle" x="431.5" y="-336" font-family="Times,serif" font-size="10.00" fill="green">__worker_queue</text>
</g>
<!-- .ndarray -->
<g id="node27" class="node">
<title>.ndarray</title>
<polygon fill="#aaaa00" stroke="#aaaa00" points="469,-84.5 469,-120.5 542,-120.5 542,-84.5 469,-84.5"/>
<text text-anchor="start" x="477" y="-98.8" font-family="Times,serif" font-size="14.00">ndarray</text>
</g>
<!-- .ndarray&#45;&gt;clip_demo_app_pyqt.view.multithreading.clip_video_consumer.ClipVideoConsumer -->
<g id="edge14" class="edge">
<title>.ndarray&#45;&gt;clip_demo_app_pyqt.view.multithreading.clip_video_consumer.ClipVideoConsumer</title>
<path fill="none" stroke="black" d="M505.5,-120.89C505.5,-131.18 505.5,-144.48 505.5,-156.33"/>
<polygon fill="black" stroke="black" points="505.5,-156.42 509.5,-162.42 505.5,-168.42 501.5,-162.42 505.5,-156.42"/>
<text text-anchor="middle" x="574.5" y="-142" font-family="Times,serif" font-size="10.00" fill="green">__prev_np_array_similarity</text>
</g>
</g>
</svg>
